<svg width="102" height="102" viewBox="0 0 102 102" fill="none"
    xmlns="http://www.w3.org/2000/svg">
    <path d="M102 0H0V102H102V0Z" fill="white"/>
    <path d="M102 0H0V102H102V0Z" fill="white"/>
    <path d="M102 0H0V102H102V0Z" fill="white"/>
    <path d="M91.85 51.305C91.85 73.6982 73.6982 91.85 51.305 91.85C28.9138 91.85 10.7621 73.6982 10.7621 51.305C10.7621 28.9149 28.9138 10.7621 51.305 10.7621C73.6982 10.7621 91.85 28.9149 91.85 51.305Z" fill="#FD9F39"/>
    <path d="M45.6248 70.0899C44.371 70.0899 43.1821 69.53 42.3831 68.5588L33.0076 57.155C31.536 55.3669 31.7942 52.7234 33.5845 51.2518C35.3738 49.7813 38.0183 50.0374 39.4888 51.8287L45.3815 58.9953L62.9435 34.2858C64.2855 32.3977 66.9056 31.9568 68.7936 33.2987C70.6828 34.6396 71.1248 37.2597 69.7839 39.1467L49.0439 68.3251C48.2863 69.3897 47.0772 70.041 45.7714 70.0878C45.7215 70.0899 45.6726 70.0899 45.6248 70.0899Z" fill="white"/>
    <path d="M51.8744 0.225237C51.7894 -0.00851324 51.4855 -0.00638824 51.4005 0.225237C50.9139 1.54061 51.035 3.14605 50.9798 4.53367C50.9384 5.57492 50.7131 7.04117 51.3092 7.9613C51.3793 8.06967 51.5259 8.06755 51.596 7.9613C52.208 7.03692 52.0402 5.59511 52.0954 4.53367C52.1666 3.17155 52.343 1.5268 51.8744 0.225237Z" fill="#FD9F39"/>
    <path d="M64.2579 2.10802C62.6259 3.46802 61.3817 7.24202 62.4612 9.19489C62.6684 9.57102 63.1911 9.37233 63.2188 8.98877C63.3123 7.72545 63.4514 6.58327 63.8584 5.37308C64.1899 4.38814 64.7413 3.37983 64.7902 2.32689C64.8029 2.03364 64.4512 1.94545 64.2579 2.10802Z" fill="#FD9F39"/>
    <path d="M75.5108 7.99534C74.5418 8.40334 73.9787 9.21934 73.4017 10.0662C72.7462 11.0256 71.8717 12.2082 71.6422 13.3642C71.604 13.5586 71.8112 13.7764 72.0035 13.6415C72.8386 13.0709 73.4102 12.0137 73.967 11.1882C74.6024 10.2447 75.4247 9.39147 75.8317 8.31834C75.8986 8.14409 75.6904 7.92203 75.5108 7.99534Z" fill="#FD9F39"/>
    <path d="M84.9447 15.2044C84.2074 15.3818 83.6644 15.929 83.1725 16.4741C82.5711 17.1434 82.0197 17.8564 81.4141 18.5215C81.0783 18.8923 81.5947 19.4119 81.9612 19.0697C82.5605 18.5056 83.1172 17.9021 83.6942 17.3145C84.2297 16.7662 84.8576 16.269 85.2518 15.6028C85.3761 15.3924 85.1732 15.1491 84.9447 15.2044Z" fill="#FD9F39"/>
    <path d="M92.2335 22.0086C90.1287 22.2615 88.5785 24.1644 87.1431 25.5457C86.7637 25.908 87.3131 26.4169 87.7041 26.1067C89.2213 24.905 91.1487 23.9636 92.4471 22.525C92.6043 22.3518 92.5172 21.9767 92.2335 22.0086Z" fill="#FD9F39"/>
    <path d="M96.1201 30.0624C95.1628 29.9668 94.2948 30.7892 93.5638 31.314C92.7711 31.8846 91.9339 32.47 91.2783 33.1957C91.0807 33.4157 91.2688 33.8024 91.5748 33.71C92.5108 33.4327 93.3545 32.877 94.1832 32.3723C94.9471 31.908 96.0574 31.4989 96.4591 30.6521C96.5929 30.3673 96.4272 30.0922 96.1201 30.0624Z" fill="#FD9F39"/>
    <path d="M101.472 40.7108C100.624 40.3453 99.7815 40.5535 98.8932 40.697C97.5407 40.9169 96.1892 41.0901 94.8249 41.2176C94.1598 41.2824 94.1449 42.2206 94.8249 42.2631C95.9947 42.3353 97.138 42.1887 98.2961 42.0315C99.3267 41.8923 100.6 41.904 101.472 41.2909C101.653 41.1645 101.726 40.8192 101.472 40.7108Z" fill="#FD9F39"/>
    <path d="M101.758 48.4585C100.845 48.1642 99.9037 48.3565 98.9825 48.5371C97.8722 48.7592 96.7651 48.9579 95.6484 49.1449C95.1883 49.2214 95.3605 49.8482 95.7493 49.8939C96.6599 49.9991 97.5365 49.8716 98.4343 49.7282C99.5255 49.555 100.724 49.471 101.758 49.0875C102.057 48.9759 102.081 48.5594 101.758 48.4585Z" fill="#FD9F39"/>
    <path d="M100.361 58.2887C99.7964 58.0401 99.2269 58.056 98.6138 58.056C97.7267 58.0518 96.917 57.9891 96.0458 57.8063C95.5932 57.7118 95.302 58.3216 95.726 58.5681C96.9425 59.28 99.0707 59.4596 100.361 58.8688C100.579 58.769 100.585 58.3843 100.361 58.2887Z" fill="#FD9F39"/>
    <path d="M98.4948 69.6692C98.1187 68.8341 96.6184 68.3814 95.8545 67.9161C94.9822 67.3859 94.0684 66.8079 93.0474 66.6389C92.7371 66.589 92.5703 66.9587 92.8359 67.1436C93.7476 67.7843 94.639 68.4547 95.5528 69.0933C96.2614 69.5884 97.3463 70.5755 98.26 70.2429C98.515 70.1526 98.6032 69.9093 98.4948 69.6692Z" fill="#FD9F39"/>
    <path d="M93.0899 77.094C92.7818 76.3757 91.8744 76.1388 91.239 75.7892C90.4825 75.3695 89.7728 74.8956 89.063 74.4037C88.808 74.2273 88.4457 74.5811 88.6306 74.8361C89.1831 75.6011 89.8376 76.313 90.6121 76.8613C91.2964 77.3458 92.1103 77.9514 92.9645 77.5678C93.1515 77.4818 93.1568 77.2501 93.0899 77.094Z" fill="#FD9F39"/>
    <path d="M89.9863 83.3584C89.6144 82.6009 88.4616 82.1961 87.7933 81.7052C86.9784 81.1059 86.1358 80.4206 85.136 80.172C84.6207 80.0445 84.4061 80.6894 84.7949 80.9816C85.6216 81.5968 86.4344 82.2194 87.2493 82.8569C87.9187 83.3765 88.8441 84.2307 89.7494 83.9417C90.0054 83.8599 90.1021 83.5943 89.9863 83.3584Z" fill="#FD9F39"/>
    <path d="M82.2503 87.5097C81.6393 86.7978 80.9869 85.9945 80.1964 85.4792C79.9043 85.2901 79.5398 85.6641 79.7226 85.9563C80.1858 86.6915 80.7914 87.3715 81.3418 88.0441C81.9241 88.7581 82.5393 89.862 83.4487 90.1744C83.7122 90.2647 83.9024 89.9938 83.861 89.7611C83.7101 88.8994 82.7985 88.1461 82.2503 87.5097Z" fill="#FD9F39"/>
    <path d="M76.2312 92.9326C75.7244 91.8308 75.1612 90.7407 74.5886 89.6728C74.3994 89.318 73.8363 89.5634 73.9457 89.9427C74.2432 90.9744 74.6321 91.9923 75.0295 92.9889C75.4003 93.9165 75.6479 95.1862 76.4214 95.8566C76.6126 96.0213 77.0143 95.9979 77.0589 95.6887C77.2013 94.6985 76.6381 93.8145 76.2312 92.9326Z" fill="#FD9F39"/>
    <path d="M68.2306 96.4495C67.9246 95.522 67.5867 94.5349 67.0937 93.6891C66.8812 93.3268 66.181 93.449 66.2405 93.9208C66.3521 94.7867 66.6687 95.6048 66.929 96.4346C67.2223 97.3611 67.2626 98.5054 67.8491 99.2938C68.0574 99.5764 68.4144 99.518 68.5472 99.2035C68.9223 98.311 68.5175 97.3208 68.2306 96.4495Z" fill="#FD9F39"/>
    <path d="M60.145 99.585C60.0727 98.5331 60.0674 97.4451 59.8506 96.4102C59.7741 96.0468 59.1845 96.0394 59.1133 96.4102C58.9348 97.3303 59.0176 98.2685 59.0538 99.2003C59.0846 100.046 58.9242 101.013 59.4777 101.696C59.5627 101.799 59.772 101.803 59.8549 101.696C60.3458 101.065 60.197 100.357 60.145 99.585Z" fill="#FD9F39"/>
    <path d="M51.2635 99.7677C51.2518 98.7753 51.2752 97.7585 51.0988 96.7768C51.0319 96.407 50.4199 96.407 50.354 96.7768C50.1776 97.7585 50.201 98.7753 50.1893 99.7677C50.1787 100.652 49.9896 101.622 50.4528 102.407C50.5739 102.613 50.8799 102.613 50.9989 102.407C51.4622 101.622 51.2741 100.652 51.2635 99.7677Z" fill="#FD9F39"/>
    <path d="M38.3542 2.10802C39.9862 3.46802 41.2314 7.24202 40.1519 9.19489C39.9437 9.57102 39.4209 9.37233 39.3933 8.98877C39.3008 7.72545 39.1617 6.58327 38.7547 5.37308C38.4222 4.38814 37.8707 3.37983 37.8229 2.32689C37.8091 2.03364 38.1618 1.94545 38.3542 2.10802Z" fill="#FD9F39"/>
    <path d="M27.1012 7.99534C28.0692 8.40334 28.6344 9.21934 29.2113 10.0662C29.8658 11.0256 30.7403 12.2082 30.9698 13.3642C31.0091 13.5586 30.8019 13.7764 30.6085 13.6415C29.7734 13.0709 29.2018 12.0137 28.6461 11.1882C28.0097 10.2447 27.1873 9.39147 26.7804 8.31834C26.7134 8.14409 26.9227 7.92203 27.1012 7.99534Z" fill="#FD9F39"/>
    <path d="M17.6662 15.2044C18.4046 15.3818 18.9465 15.929 19.4395 16.4741C20.0419 17.1434 20.5923 17.8564 21.199 18.5215C21.5337 18.8923 21.0173 19.4119 20.6518 19.0697C20.0515 18.5056 19.4926 17.9021 18.9178 17.3145C18.3834 16.7662 17.7544 16.269 17.3602 15.6028C17.2359 15.3924 17.4399 15.1491 17.6662 15.2044Z" fill="#FD9F39"/>
    <path d="M10.3775 22.0086C12.4855 22.2615 14.0335 24.1644 15.469 25.5457C15.8472 25.908 15.299 26.4169 14.908 26.1067C13.3918 24.905 11.4633 23.9636 10.165 22.525C10.0088 22.3518 10.0959 21.9767 10.3775 22.0086Z" fill="#FD9F39"/>
    <path d="M6.49189 30.0624C7.45026 29.9668 8.31939 30.7892 9.04932 31.314C9.84195 31.8846 10.6781 32.47 11.3348 33.1957C11.5313 33.4157 11.3443 33.8024 11.0373 33.71C10.1001 33.4327 9.25757 32.877 8.42989 32.3723C7.66489 31.908 6.55564 31.4989 6.15295 30.6521C6.02014 30.3673 6.18376 30.0922 6.49189 30.0624Z" fill="#FD9F39"/>
    <path d="M1.14115 40.7108C1.98796 40.3453 2.83053 40.5535 3.71984 40.697C5.0724 40.9169 6.42284 41.0901 7.78815 41.2176C8.45221 41.2824 8.46815 42.2206 7.78815 42.2631C6.61621 42.3353 5.47509 42.1887 4.31696 42.0315C3.28528 41.8923 2.01346 41.904 1.14115 41.2909C0.959465 41.1645 0.887215 40.8192 1.14115 40.7108Z" fill="#FD9F39"/>
    <path d="M0.854209 48.4585C1.7669 48.1642 2.70827 48.3565 3.62946 48.5371C4.74083 48.7592 5.84583 48.9579 6.96358 49.1449C7.42365 49.2214 7.25258 49.8482 6.86158 49.8939C5.95208 49.9991 5.07658 49.8716 4.17771 49.7282C3.08758 49.555 1.88802 49.471 0.854209 49.0875C0.555646 48.9759 0.531209 48.5594 0.854209 48.4585Z" fill="#FD9F39"/>
    <path d="M2.25145 58.2887C2.8167 58.0401 3.38513 58.056 3.99926 58.056C4.88538 58.0518 5.69607 57.9891 6.56626 57.8063C7.01995 57.7118 7.31001 58.3216 6.88713 58.5681C5.66951 59.28 3.54132 59.4596 2.25145 58.8688C2.03257 58.769 2.02832 58.3843 2.25145 58.2887Z" fill="#FD9F39"/>
    <path d="M4.11821 69.6692C4.49221 68.8341 5.99565 68.3814 6.75852 67.9161C7.63084 67.3859 8.54353 66.8079 9.56353 66.6389C9.87484 66.589 10.0417 66.9587 9.77709 67.1436C8.8644 67.7843 7.9719 68.4547 7.05921 69.0933C6.35159 69.5884 5.26571 70.5755 4.35302 70.2429C4.09484 70.1526 4.00984 69.9093 4.11821 69.6692Z" fill="#FD9F39"/>
    <path d="M9.52318 77.094C9.82918 76.3757 10.7387 76.1388 11.3741 75.7892C12.1284 75.3695 12.8403 74.8956 13.5479 74.4037C13.804 74.2273 14.1663 74.5811 13.9825 74.8361C13.4289 75.6011 12.7755 76.313 12.0009 76.8613C11.3146 77.3458 10.5017 77.9514 9.6475 77.5678C9.4605 77.4818 9.45625 77.2501 9.52318 77.094Z" fill="#FD9F39"/>
    <path d="M12.6257 83.3584C12.9976 82.6009 14.1493 82.1961 14.8187 81.7052C15.6347 81.1059 16.4772 80.4206 17.4771 80.172C17.9924 80.0445 18.2049 80.6894 17.8181 80.9816C16.9904 81.5968 16.1766 82.2194 15.3627 82.8569C14.6933 83.3765 13.7679 84.2307 12.8637 83.9417C12.6055 83.8599 12.5109 83.5943 12.6257 83.3584Z" fill="#FD9F39"/>
    <path d="M20.3617 87.5097C20.9716 86.7978 21.6251 85.9945 22.4156 85.4792C22.7077 85.2901 23.0711 85.6641 22.8905 85.9563C22.4272 86.6915 21.8206 87.3715 21.2702 88.0441C20.6879 88.7581 20.0727 89.862 19.1643 90.1744C18.8997 90.2647 18.7106 89.9938 18.7499 89.7611C18.9019 88.8994 19.8135 88.1461 20.3617 87.5097Z" fill="#FD9F39"/>
    <path d="M26.3798 92.9326C26.8887 91.8308 27.4508 90.7407 28.0235 89.6728C28.2136 89.318 28.7757 89.5634 28.6673 89.9427C28.3698 90.9744 27.9799 91.9923 27.5836 92.9889C27.2117 93.9165 26.9652 95.1862 26.1906 95.8566C26.0005 96.0213 25.5978 95.9979 25.5531 95.6887C25.4108 94.6985 25.9728 93.8145 26.3798 92.9326Z" fill="#FD9F39"/>
    <path d="M34.3825 96.4495C34.6874 95.522 35.0242 94.5349 35.5194 93.6891C35.7319 93.3268 36.4321 93.449 36.3715 93.9208C36.2599 94.7867 35.9433 95.6048 35.683 96.4346C35.3908 97.3611 35.3494 98.5054 34.7629 99.2938C34.5546 99.5764 34.1987 99.518 34.0659 99.2035C33.6908 98.311 34.0946 97.3208 34.3825 96.4495Z" fill="#FD9F39"/>
    <path d="M42.4681 99.585C42.5393 98.5331 42.5457 97.4451 42.7624 96.4102C42.8389 96.0468 43.4275 96.0394 43.4987 96.4102C43.6762 97.3303 43.5943 98.2685 43.5593 99.2003C43.5274 100.046 43.6878 101.013 43.1332 101.696C43.0503 101.799 42.841 101.803 42.7571 101.696C42.2652 101.065 42.416 100.357 42.4681 99.585Z" fill="#FD9F39"/>
</svg>
